<svg xmlns="http://www.w3.org/2000/svg" width="256" height="256" viewBox="0 0 100 100"><rect width="100" height="100" rx="20" fill="#434343" style="--darkreader-inline-fill: #1d1f20;" data-darkreader-inline-fill=""></rect><path fill="#ffffff" d="M36.08 90.86L33.56 90.26Q36.44 77.18 36.44 52.64Q36.44 28.10 35.36 16.46L35.36 16.46Q22.04 16.70 18.32 20.30L18.32 20.30Q17.48 21.98 17.48 25.58Q17.48 29.18 18.68 30.50L18.68 30.50L18.56 31.34Q15.56 33.14 12.56 36.38L12.56 36.38Q11.12 36.26 10.22 35.18Q9.32 34.10 9.32 32.66L9.32 32.66Q9.32 27.14 15.62 19.58Q21.92 12.02 27.68 9.14L27.68 9.14Q37.88 10.10 57.92 10.10L57.92 10.10Q90.68 10.10 90.68 41.90L90.68 41.90Q90.68 58.58 81.92 72.14Q73.16 85.70 58.16 90.02L58.16 90.02Q49.52 90.02 38.84 85.46L38.84 85.46Q36.80 88.58 36.08 90.86L36.08 90.86ZM56 15.74L56 15.74Q50.48 15.74 46.76 16.34L46.76 16.34Q45.68 27.62 45.68 47.54Q45.68 67.46 46.28 78.02L46.28 78.02Q52.76 81.38 61.04 81.38Q69.32 81.38 73.88 77.30L73.88 77.30Q80 66.14 80 49.70Q80 33.26 74.90 24.50Q69.80 15.74 56 15.74Z" style="--darkreader-inline-fill: #52585c;" data-darkreader-inline-fill=""></path></svg>